<svg width="88" height="88" viewBox="0 0 88 88" fill="none" xmlns="http://www.w3.org/2000/svg">
<g clip-path="url(#clip0_1079_4972)">
<path d="M39.0901 12.7004H53.1301C53.6801 12.7004 53.9501 13.3604 53.5601 13.7504L32.4401 34.8604H65.0101C70.9501 34.8604 75.7701 39.6804 75.7701 45.6204V79.4804C75.7701 79.6904 75.6001 79.8604 75.3901 79.8604H64.8801C64.6701 79.8604 64.5001 79.6904 64.5001 79.4804V46.1304H32.4401L53.5601 67.2404C53.9501 67.6304 53.6701 68.2904 53.1301 68.2904H39.0901C38.8201 68.2904 38.5601 68.1804 38.3701 67.9904L11.1401 40.7604C10.9901 40.6104 10.9901 40.3704 11.1401 40.2204L38.3701 12.9904C38.5601 12.8004 38.8201 12.6904 39.0901 12.6904V12.7004Z" fill="#F0F0F0"/>
</g>
<defs>
<clipPath id="clip0_1079_4972">
<rect width="88" height="88" fill="white"/>
</clipPath>
</defs>
</svg>
