<svg width="88" height="88" viewBox="0 0 88 88" fill="none" xmlns="http://www.w3.org/2000/svg">
<g clip-path="url(#clip0_1079_4975)">
<path d="M68.03 46.8198V32.7798C68.03 32.5098 67.92 32.2498 67.73 32.0598L44.27 8.5998C44.12 8.4498 43.88 8.4498 43.73 8.5998L20.27 32.0598C20.08 32.2498 19.97 32.5098 19.97 32.7798V46.8198C19.97 47.3698 20.63 47.6398 21.02 47.2498L38.36 29.9098V44.6598C38.36 47.5298 39.48 50.2398 41.51 52.2698L54.25 64.9998V79.4798C54.25 79.6898 54.42 79.8598 54.63 79.8598H65.14C65.35 79.8598 65.52 79.6898 65.52 79.4798V64.7798C65.52 61.9098 64.4 59.1998 62.37 57.1698L49.63 44.4398V29.8998L66.97 47.2398C67.36 47.6298 68.02 47.3498 68.02 46.8098L68.03 46.8198Z" fill="#F0F0F0"/>
</g>
<defs>
<clipPath id="clip0_1079_4975">
<rect width="88" height="88" fill="white"/>
</clipPath>
</defs>
</svg>
