<svg width="88" height="88" viewBox="0 0 88 88" fill="none" xmlns="http://www.w3.org/2000/svg">
<g clip-path="url(#clip0_1079_4967)">
<path d="M48.91 12.7004H34.87C34.32 12.7004 34.05 13.3604 34.44 13.7504L55.56 34.8604H22.99C17.05 34.8604 12.23 39.6804 12.23 45.6204V79.4804C12.23 79.6904 12.4 79.8604 12.61 79.8604H23.12C23.33 79.8604 23.5 79.6904 23.5 79.4804V46.1304H55.56L34.44 67.2404C34.05 67.6304 34.33 68.2904 34.87 68.2904H48.91C49.18 68.2904 49.44 68.1804 49.63 67.9904L76.86 40.7604C77.01 40.6104 77.01 40.3704 76.86 40.2204L49.63 12.9904C49.44 12.8004 49.18 12.6904 48.91 12.6904V12.7004Z" fill="#F0F0F0"/>
</g>
<defs>
<clipPath id="clip0_1079_4967">
<rect width="88" height="88" fill="white"/>
</clipPath>
</defs>
</svg>
