<svg width="88" height="88" viewBox="0 0 88 88" fill="none" xmlns="http://www.w3.org/2000/svg">
<g clip-path="url(#clip0_1079_4974)">
<path d="M28.11 52.0496V25.3196C28.11 19.3796 32.93 14.5596 38.87 14.5596H65.52C71.46 14.5596 76.28 19.3796 76.28 25.3196V79.4896C76.28 79.6996 76.11 79.8696 75.9 79.8696H65.39C65.18 79.8696 65.01 79.6996 65.01 79.4896V25.8296H39.39V52.0496L56.73 34.7096C57.12 34.3196 57.78 34.5996 57.78 35.1396V49.1796C57.78 49.4496 57.67 49.7096 57.48 49.8996L34.02 73.3596C33.87 73.5096 33.63 73.5096 33.48 73.3596L10.02 49.8996C9.82997 49.7096 9.71997 49.4496 9.71997 49.1796V35.1396C9.71997 34.5896 10.38 34.3196 10.77 34.7096L28.11 52.0496Z" fill="#F0F0F0"/>
</g>
<defs>
<clipPath id="clip0_1079_4974">
<rect width="88" height="88" fill="white"/>
</clipPath>
</defs>
</svg>
