<svg width="88" height="88" viewBox="0 0 88 88" fill="none" xmlns="http://www.w3.org/2000/svg">
<g clip-path="url(#clip0_1079_4968)">
<path d="M62.65 25.0799V50.7799L25.04 13.1799C22.98 11.1199 19.91 10.5099 17.22 11.6299C14.53 12.7399 12.79 15.3499 12.79 18.2599V79.4899C12.79 79.6999 12.96 79.8699 13.17 79.8699H23.68C23.89 79.8699 24.06 79.6999 24.06 79.4899V28.1499L54.67 58.7599H28.97C28.42 58.7599 28.15 59.4199 28.54 59.8099L38.46 69.7299C38.65 69.9199 38.91 70.0299 39.18 70.0299H73.53C73.74 70.0299 73.91 69.8599 73.91 69.6499V35.2999C73.91 35.0299 73.8 34.7699 73.61 34.5799L63.69 24.6599C63.3 24.2699 62.64 24.5499 62.64 25.0899L62.65 25.0799Z" fill="#F0F0F0"/>
</g>
<defs>
<clipPath id="clip0_1079_4968">
<rect width="88" height="88" fill="white"/>
</clipPath>
</defs>
</svg>
