<svg width="88" height="88" viewBox="0 0 88 88" fill="none" xmlns="http://www.w3.org/2000/svg">
<g clip-path="url(#clip0_1079_4965)">
<path d="M71.5 35.8298L44.27 8.5998C44.12 8.4498 43.8799 8.4498 43.7299 8.5998L16.5 35.8298C16.31 36.0198 16.2 36.2798 16.2 36.5498V50.5898C16.2 51.1398 16.86 51.4098 17.25 51.0198L38.3699 29.8998V79.4798C38.3699 79.6898 38.54 79.8598 38.75 79.8598H49.2599C49.4699 79.8598 49.6399 79.6898 49.6399 79.4798V29.9098L70.75 51.0198C71.1399 51.4098 71.8 51.1298 71.8 50.5898V36.5498C71.8 36.2798 71.6899 36.0198 71.5 35.8298Z" fill="#F0F0F0"/>
</g>
<defs>
<clipPath id="clip0_1079_4965">
<rect width="88" height="88" fill="white"/>
</clipPath>
</defs>
</svg>
