<svg width="88" height="88" viewBox="0 0 88 88" fill="none" xmlns="http://www.w3.org/2000/svg">
<g clip-path="url(#clip0_1079_4971)">
<path d="M53.8201 10.2805L63.7401 20.2005C64.1301 20.5905 63.8501 21.2505 63.3101 21.2505H37.6101L58.6201 42.2605C60.6401 44.2805 61.7701 47.0205 61.7701 49.8705V79.4905C61.7701 79.7005 61.6001 79.8705 61.3901 79.8705H50.8801C50.6701 79.8705 50.5001 79.7005 50.5001 79.4905V50.0805L29.6401 29.2205V54.9205C29.6401 55.4705 28.9801 55.7405 28.5901 55.3505L18.6701 45.4305C18.4801 45.2405 18.3701 44.9805 18.3701 44.7105V10.3605C18.3701 10.1505 18.5401 9.98047 18.7501 9.98047H53.1001C53.3701 9.98047 53.6301 10.0905 53.8201 10.2805Z" fill="#F0F0F0"/>
</g>
<defs>
<clipPath id="clip0_1079_4971">
<rect width="88" height="88" fill="white"/>
</clipPath>
</defs>
</svg>
