<svg width="88" height="88" viewBox="0 0 88 88" fill="none" xmlns="http://www.w3.org/2000/svg">
<g clip-path="url(#clip0_1079_4973)">
<path d="M25.3501 25.0799V50.7799L62.9601 13.1799C65.0201 11.1199 68.0901 10.5099 70.7801 11.6299C73.4701 12.7399 75.2101 15.3499 75.2101 18.2599V79.4899C75.2101 79.6999 75.0401 79.8699 74.8301 79.8699H64.3201C64.1101 79.8699 63.9401 79.6999 63.9401 79.4899V28.1499L33.3301 58.7599H59.0301C59.5801 58.7599 59.8501 59.4199 59.4601 59.8099L49.5401 69.7299C49.3501 69.9199 49.0901 70.0299 48.8201 70.0299H14.4601C14.2501 70.0299 14.0801 69.8599 14.0801 69.6499V35.2999C14.0801 35.0299 14.1901 34.7699 14.3801 34.5799L24.3001 24.6599C24.6901 24.2699 25.3501 24.5499 25.3501 25.0899V25.0799Z" fill="#F0F0F0"/>
</g>
<defs>
<clipPath id="clip0_1079_4973">
<rect width="88" height="88" fill="white"/>
</clipPath>
</defs>
</svg>
