<svg width="88" height="88" viewBox="0 0 88 88" fill="none" xmlns="http://www.w3.org/2000/svg">
<g clip-path="url(#clip0_1079_4966)">
<path d="M34.1799 10.2805L24.2599 20.2005C23.8699 20.5905 24.1499 21.2505 24.6899 21.2505H50.3899L29.3799 42.2605C27.3599 44.2805 26.2299 47.0205 26.2299 49.8705V79.4905C26.2299 79.7005 26.3999 79.8705 26.6099 79.8705H37.1199C37.3299 79.8705 37.4999 79.7005 37.4999 79.4905V50.0805L58.3599 29.2205V54.9205C58.3599 55.4705 59.0199 55.7405 59.4099 55.3505L69.3299 45.4305C69.5199 45.2405 69.6299 44.9805 69.6299 44.7105V10.3605C69.6299 10.1505 69.4599 9.98047 69.2499 9.98047H34.8999C34.6299 9.98047 34.3699 10.0905 34.1799 10.2805Z" fill="#F0F0F0"/>
</g>
<defs>
<clipPath id="clip0_1079_4966">
<rect width="88" height="88" fill="white"/>
</clipPath>
</defs>
</svg>
