<svg width="88" height="88" viewBox="0 0 88 88" fill="none" xmlns="http://www.w3.org/2000/svg">
<g clip-path="url(#clip0_1079_4970)">
<path d="M19.97 46.8198V32.7798C19.97 32.5098 20.08 32.2498 20.27 32.0598L43.73 8.5998C43.88 8.4498 44.12 8.4498 44.27 8.5998L67.73 32.0598C67.92 32.2498 68.03 32.5098 68.03 32.7798V46.8198C68.03 47.3698 67.37 47.6398 66.98 47.2498L49.64 29.9098V44.6598C49.64 47.5298 48.52 50.2398 46.49 52.2698L33.75 64.9998V79.4798C33.75 79.6898 33.58 79.8598 33.37 79.8598H22.86C22.65 79.8598 22.48 79.6898 22.48 79.4798V64.7798C22.48 61.9098 23.6 59.1998 25.63 57.1698L38.37 44.4398V29.8998L21.03 47.2398C20.64 47.6298 19.98 47.3498 19.98 46.8098L19.97 46.8198Z" fill="#F0F0F0"/>
</g>
<defs>
<clipPath id="clip0_1079_4970">
<rect width="88" height="88" fill="white"/>
</clipPath>
</defs>
</svg>
