<svg width="88" height="88" viewBox="0 0 88 88" fill="none" xmlns="http://www.w3.org/2000/svg">
<g clip-path="url(#clip0_1079_4969)">
<path d="M59.89 52.0496V25.3196C59.89 19.3796 55.07 14.5596 49.13 14.5596H22.48C16.54 14.5596 11.72 19.3796 11.72 25.3196V79.4896C11.72 79.6996 11.89 79.8696 12.1 79.8696H22.61C22.82 79.8696 22.99 79.6996 22.99 79.4896V25.8296H48.61V52.0496L31.27 34.7096C30.88 34.3196 30.22 34.5996 30.22 35.1396V49.1796C30.22 49.4496 30.33 49.7096 30.52 49.8996L53.98 73.3596C54.13 73.5096 54.37 73.5096 54.52 73.3596L77.98 49.8996C78.17 49.7096 78.28 49.4496 78.28 49.1796V35.1396C78.28 34.5896 77.62 34.3196 77.23 34.7096L59.89 52.0496Z" fill="#F0F0F0"/>
</g>
<defs>
<clipPath id="clip0_1079_4969">
<rect width="88" height="88" fill="white"/>
</clipPath>
</defs>
</svg>
