<svg width="88" height="88" viewBox="0 0 88 88" fill="none" xmlns="http://www.w3.org/2000/svg">
<path d="M38.3996 12.3294V27.5246C38.3996 28.5314 37.5187 29.3179 36.5434 29.2864H36.0401C35.0333 29.3179 34.1839 28.5314 34.1524 27.5246V12.2665C34.2783 10.5991 33.0199 9.12052 31.321 9.02614C31.321 9.02614 31.321 9.02614 31.2896 9.02614C31.0694 9.02614 30.8491 9.02614 30.6289 9.02614C28.9301 8.80592 27.3571 10.0014 27.1054 11.7002C27.1054 11.889 27.1054 12.0778 27.1054 12.2665V27.5246C27.0739 28.5314 26.2245 29.3179 25.2178 29.2864H24.7144C23.7077 29.3179 22.8583 28.5314 22.8268 27.5246V12.3609C22.8268 10.5362 21.3482 9.08906 19.5235 9.08906C17.6988 8.96322 16.1573 10.3475 16 12.1407V26.8954C16 34.9492 18.0134 37.0256 21.4111 39.5424C24.1482 41.5558 26.4762 42.7198 26.4762 47.722V80H34.6873V47.722C34.6873 42.7198 37.0153 41.5558 39.7523 39.5424C43.15 37.0256 45.1949 34.9492 45.1635 26.8954V12.3924C45.2264 10.5991 43.8107 9.08906 42.0175 9.02614C42.0175 9.02614 42.0175 9.02614 41.986 9.02614C40.1613 8.86884 38.5569 10.1587 38.3681 11.9834V12.3294" fill="#F0F0F0"/>
<path d="M62.3092 13.7766C60.5789 18.3383 55.6082 29.0662 55.2936 38.5042C54.8217 53.196 64.3226 51.0253 64.5114 60.6521V79.9056H72.5966V80L72.6281 13.7766C72.6281 8.20818 64.9833 6.66663 62.3092 13.7766Z" fill="#F0F0F0"/>
</svg>
